<svg xmlns="http://www.w3.org/2000/svg" width="78.02" height="78.02" viewBox="0 0 78.02 78.02">
  <g id="Group_1787" data-name="Group 1787" transform="translate(-145.195 -326.195)">
    <g id="ico_24_actions_heart_outlined" data-name="ico / 24 / actions / heart_outlined" transform="translate(159 339.08)">
      <rect id="Bounding_box" data-name="Bounding box" width="47" height="47" transform="translate(1 3)" fill="rgba(255,255,255,0)"/>
      <g id="Group_1692" data-name="Group 1692" transform="translate(-356 -182.799)">
        <rect id="Bounding_box-2" data-name="Bounding box" width="48" height="48" transform="translate(356 182.799)" fill="#007f80" opacity="0"/>
        <g id="list-_1_" transform="translate(357.991 190.976)">
          <path id="Path_169" data-name="Path 169" d="M12.976-459.662a2.941,2.941,0,0,1,1.844,1.628l.216.457v10.217l-.274.557a2.851,2.851,0,0,1-1.42,1.387l-.465.216H2.66l-.557-.274A2.851,2.851,0,0,1,.716-446.9L.5-447.36v-10.217l.216-.465a2.852,2.852,0,0,1,1.387-1.42l.557-.274,4.984-.017A42.742,42.742,0,0,1,12.976-459.662Zm-9.818,7.193v4.61h9.22l.025-4.527c.008-2.492,0-4.577-.025-4.635-.025-.083-1-.1-4.627-.083l-4.594.025Z" transform="translate(27.41 459.758)" fill="#007f80"/>
          <path id="Path_170" data-name="Path 170" d="M247.2-411.672a1.366,1.366,0,0,1,.756,1.5,1.422,1.422,0,0,1-.864.955c-.216.066-3.73.083-11.247.066-10.9-.025-10.94-.025-11.164-.2a1.173,1.173,0,0,1-.573-1.113,1.173,1.173,0,0,1,.573-1.113c.224-.174.257-.174,11.247-.191C244.969-411.78,247-411.763,247.2-411.672Z" transform="translate(-224.111 415.755)" fill="#007f80"/>
          <path id="Path_171" data-name="Path 171" d="M239.894-351.672a1.366,1.366,0,0,1,.756,1.5,1.422,1.422,0,0,1-.864.955c-.208.066-2.633.083-7.592.066-7.2-.025-7.285-.025-7.509-.2a1.173,1.173,0,0,1-.573-1.113,1.173,1.173,0,0,1,.573-1.113c.224-.174.3-.174,7.592-.191C238.274-351.779,239.694-351.763,239.894-351.672Z" transform="translate(-216.802 360.739)" fill="#007f80"/>
          <path id="Path_172" data-name="Path 172" d="M12.976-227.662a2.941,2.941,0,0,1,1.844,1.628l.216.457v10.217l-.274.557a2.852,2.852,0,0,1-1.42,1.387l-.465.216H2.66l-.557-.274A2.852,2.852,0,0,1,.716-214.9L.5-215.36v-10.217l.216-.465a2.851,2.851,0,0,1,1.387-1.42l.557-.274,4.984-.017A42.742,42.742,0,0,1,12.976-227.662Zm-9.818,7.193v4.61h9.22l.025-4.527c.008-2.492,0-4.577-.025-4.635-.025-.083-1-.1-4.627-.083l-4.594.025Z" transform="translate(27.41 247.03)" fill="#007f80"/>
          <path id="Path_173" data-name="Path 173" d="M247.2-183.671a1.366,1.366,0,0,1,.756,1.5,1.422,1.422,0,0,1-.864.955c-.216.066-3.73.083-11.247.066-10.9-.025-10.94-.025-11.164-.2a1.173,1.173,0,0,1-.573-1.113,1.173,1.173,0,0,1,.573-1.113c.224-.174.257-.174,11.247-.191C244.969-183.78,247-183.763,247.2-183.671Z" transform="translate(-224.111 206.694)" fill="#007f80"/>
          <path id="Path_174" data-name="Path 174" d="M239.894-119.672a1.366,1.366,0,0,1,.756,1.5,1.422,1.422,0,0,1-.864.955c-.208.066-2.633.083-7.592.066-7.2-.025-7.285-.025-7.509-.2a1.173,1.173,0,0,1-.573-1.113,1.173,1.173,0,0,1,.573-1.113c.224-.174.3-.174,7.592-.191C238.274-119.78,239.694-119.763,239.894-119.672Z" transform="translate(-216.802 148.01)" fill="#007f80"/>
        </g>
      </g>
    </g>
    <line id="Line_4" data-name="Line 4" x1="76.606" y2="76.606" transform="translate(145.902 326.902)" fill="none" stroke="#007f80" stroke-width="2"/>
  </g>
</svg>
