<svg xmlns="http://www.w3.org/2000/svg" width="24" height="24" viewBox="0 0 24 24">
  <g id="Group_1666" data-name="Group 1666" transform="translate(-356 -183)">
    <rect id="Bounding_box" data-name="Bounding box" width="24" height="24" transform="translate(356 183)" fill="#007f80" opacity="0"/>
    <g id="list-_1_" transform="translate(357 187)">
      <path id="Path_169" data-name="Path 169" d="M6.766-459.71a1.477,1.477,0,0,1,.926.818l.108.229v5.131l-.138.279a1.432,1.432,0,0,1-.713.7l-.234.108H1.585l-.28-.138a1.432,1.432,0,0,1-.7-.713L.5-453.532v-5.131l.108-.234a1.432,1.432,0,0,1,.7-.713l.28-.138,2.5-.008A21.476,21.476,0,0,1,6.766-459.71ZM1.835-456.1v2.315H6.466l.013-2.274c0-1.251,0-2.3-.013-2.328a14.42,14.42,0,0,0-2.324-.042l-2.307.012Z" transform="translate(13.517 459.758)" fill="#007f80"/>
      <path id="Path_170" data-name="Path 170" d="M235.709-411.72a.686.686,0,0,1,.38.755.714.714,0,0,1-.434.48c-.108.033-1.873.042-5.649.033-5.473-.013-5.494-.013-5.607-.1a.589.589,0,0,1-.288-.559.589.589,0,0,1,.288-.559c.113-.088.129-.088,5.649-.1C234.587-411.774,235.6-411.766,235.709-411.72Z" transform="translate(-224.111 413.771)" fill="#007f80"/>
      <path id="Path_171" data-name="Path 171" d="M232.038-351.72a.686.686,0,0,1,.38.755.714.714,0,0,1-.434.48c-.1.033-1.322.042-3.813.033-3.617-.013-3.659-.013-3.771-.1a.589.589,0,0,1-.288-.559.589.589,0,0,1,.288-.559c.113-.088.15-.088,3.813-.1A36.923,36.923,0,0,1,232.038-351.72Z" transform="translate(-220.44 356.274)" fill="#007f80"/>
      <path id="Path_172" data-name="Path 172" d="M6.766-227.71a1.477,1.477,0,0,1,.926.818l.108.229v5.131l-.138.28a1.432,1.432,0,0,1-.713.7l-.234.108H1.585l-.28-.138a1.432,1.432,0,0,1-.7-.713L.5-221.532v-5.131l.108-.234a1.432,1.432,0,0,1,.7-.713l.28-.138,2.5-.008A21.469,21.469,0,0,1,6.766-227.71ZM1.835-224.1v2.315H6.466l.013-2.274c0-1.252,0-2.3-.013-2.328a14.4,14.4,0,0,0-2.324-.042l-2.307.013Z" transform="translate(13.517 237.437)" fill="#007f80"/>
      <path id="Path_173" data-name="Path 173" d="M235.709-183.72a.686.686,0,0,1,.38.755.714.714,0,0,1-.434.48c-.108.033-1.873.042-5.649.033-5.473-.013-5.494-.013-5.607-.1a.589.589,0,0,1-.288-.559.589.589,0,0,1,.288-.559c.113-.088.129-.088,5.649-.1C234.587-183.774,235.6-183.766,235.709-183.72Z" transform="translate(-224.111 195.282)" fill="#007f80"/>
      <path id="Path_174" data-name="Path 174" d="M232.038-119.72a.686.686,0,0,1,.38.755.714.714,0,0,1-.434.48c-.1.033-1.322.042-3.813.033-3.617-.013-3.659-.013-3.771-.1a.589.589,0,0,1-.288-.559.589.589,0,0,1,.288-.559c.113-.088.15-.088,3.813-.1A36.932,36.932,0,0,1,232.038-119.72Z" transform="translate(-220.44 133.952)" fill="#007f80"/>
    </g>
  </g>
</svg>
