<svg xmlns="http://www.w3.org/2000/svg" width="109" height="109" viewBox="0 0 109 109">
  <g id="Group_597" data-name="Group 597" transform="translate(-128 -309.08)">
    <circle id="Ellipse_8" data-name="Ellipse 8" cx="54.5" cy="54.5" r="54.5" transform="translate(128 309.08)" fill="#007f80" opacity="0.1"/>
    <g id="ico_24_actions_heart_outlined" data-name="ico / 24 / actions / heart_outlined" transform="translate(159 340.08)">
      <rect id="Bounding_box" data-name="Bounding box" width="47" height="47" fill="rgba(255,255,255,0)"/>
      <g id="ico_24_actions_shopping_cart_outlined" data-name="ico / 24 / actions / shopping_cart_outlined" transform="translate(0 1)">
        <rect id="Bounding_box-2" data-name="Bounding box" width="46" height="46" fill="rgba(255,255,255,0)"/>
        <path id="Icon_color" data-name="Icon color" d="M33.6,42a4.2,4.2,0,1,1,4.2-4.2A4.2,4.2,0,0,1,33.6,42Zm-21,0a4.2,4.2,0,1,1,4.2-4.2A4.205,4.205,0,0,1,12.6,42ZM36.75,31.5H10.463a1.6,1.6,0,0,1-1.37-.777l-.461-.8a1.614,1.614,0,0,1,0-1.491l3.9-7.77a4.429,4.429,0,0,1-.567-.735L2.982,4.2H1.051A1.051,1.051,0,0,1,0,3.151v-2.1A1.052,1.052,0,0,1,1.051,0H3A4.21,4.21,0,0,1,6.636,2.1L7.811,4.2h33.14A1.051,1.051,0,0,1,42,5.25V6.3a10.045,10.045,0,0,1-1.365,4.958L35.7,19.928A6.193,6.193,0,0,1,30.429,23.1H17.347A5.71,5.71,0,0,1,16,22.911L13.9,27.3H36.75A1.052,1.052,0,0,1,37.8,28.35v2.1A1.052,1.052,0,0,1,36.75,31.5ZM10.227,8.4h0l5.4,9.45a2.1,2.1,0,0,0,1.8,1.051H30.512a2.113,2.113,0,0,0,1.576-1.051l4.956-8.671a4.78,4.78,0,0,0,.2-.491c.036-.1.072-.193.112-.287H10.227Z" transform="translate(2 2)" fill="#007f80"/>
      </g>
    </g>
    <line id="Line_3" data-name="Line 3" x1="76.606" y2="76.606" transform="translate(145.902 326.902)" fill="none" stroke="#e5f2f2" stroke-width="8"/>
    <path id="Path_545" data-name="Path 545" d="M76.606,0,41.894,34.712,0,76.606" transform="translate(145.902 326.902)" fill="none" stroke="#007f80" stroke-width="2"/>
  </g>
</svg>
