<svg xmlns="http://www.w3.org/2000/svg" xmlns:xlink="http://www.w3.org/1999/xlink" width="31.632" height="27.113" viewBox="0 0 31.632 27.113">
  <defs>
    <clipPath id="clip">
      <use xlink:href="#fill"/>
    </clipPath>
    <clipPath id="clip-2">
      <use xlink:href="#fill-2"/>
    </clipPath>
    <clipPath id="clip-3">
      <use xlink:href="#fill-3"/>
    </clipPath>
  </defs>
  <g id="Group_1715" data-name="Group 1715" transform="translate(1352 -2486.139)">
    <path id="Path_348" data-name="Path 348" d="M0,0H31.632V7.531H0Z" transform="translate(-1352 2486.139)" fill="#007f80"/>
    <g id="Rectangle_154" data-name="Rectangle 154" transform="translate(-1348.495 2489.59)" fill="#fafafa" stroke="#fafafa" stroke-width="1">
      <rect id="fill" width="0.876" height="0.876" stroke="none"/>
      <path d="M0,0.37638622522354126h0.8763862252235413M0.5,0v0.8763862252235413M0.8763862252235413,0.5h-0.8763862252235413M0.37638622522354126,0.8763862252235413v-0.8763862252235413" fill="none" clip-path="url(#clip)"/>
    </g>
    <g id="Rectangle_156" data-name="Rectangle 156" transform="translate(-1341.483 2489.59)" fill="#fafafa" stroke="#fff" stroke-width="1">
      <rect id="fill-2" width="0.876" height="0.876" stroke="none"/>
      <path d="M0,0.37638622522354126h0.8763862252235413M0.5,0v0.8763862252235413M0.8763862252235413,0.5h-0.8763862252235413M0.37638622522354126,0.8763862252235413v-0.8763862252235413" fill="none" clip-path="url(#clip-2)"/>
    </g>
    <g id="Rectangle_158" data-name="Rectangle 158" transform="translate(-1344.989 2489.59)" fill="#fafafa" stroke="#fafafa" stroke-width="1">
      <rect id="fill-3" width="0.876" height="0.876" stroke="none"/>
      <path d="M0,0.37638622522354126h0.8763862252235413M0.5,0v0.8763862252235413M0.8763862252235413,0.5h-0.8763862252235413M0.37638622522354126,0.8763862252235413v-0.8763862252235413" fill="none" clip-path="url(#clip-3)"/>
    </g>
    <rect id="Rectangle_157" data-name="Rectangle 157" width="31.55" height="18.404" transform="translate(-1352 2494.848)" fill="#007f80"/>
    <g id="ico_24_ui_settings_outlined" data-name="ico / 24 / ui / settings_outlined" transform="translate(-1342.36 2498.354)">
      <rect id="Bounding_box" data-name="Bounding box" width="11.393" height="11.393" fill="rgba(255,255,255,0)"/>
      <path id="Icon_color" data-name="Icon color" d="M6.223,11.142H4.853a.579.579,0,0,1-.582-.469l-.1-.558a1.13,1.13,0,0,0-.625-.81,3.3,3.3,0,0,1-.436-.24,1.22,1.22,0,0,0-.636-.179h0a1.175,1.175,0,0,0-.408.073l-.589.2a.522.522,0,0,1-.2.039H1.267A.6.6,0,0,1,.761,8.92L.077,7.8a.538.538,0,0,1,.141-.709L.69,6.726a1.1,1.1,0,0,0,.424-.916v-.48A1.094,1.094,0,0,0,.69,4.416L.218,4.047a.538.538,0,0,1-.141-.709L.748,2.222a.6.6,0,0,1,.507-.279h.007a.522.522,0,0,1,.2.039l.589.2a1.165,1.165,0,0,0,.4.073h.008A1.225,1.225,0,0,0,3.1,2.077a3.26,3.26,0,0,1,.436-.24,1.126,1.126,0,0,0,.6-.809l.1-.559A.579.579,0,0,1,4.818,0h1.37a.579.579,0,0,1,.582.469l.1.559a1.128,1.128,0,0,0,.625.809,3.26,3.26,0,0,1,.436.24,1.222,1.222,0,0,0,.636.178h.008a1.165,1.165,0,0,0,.4-.073l.589-.2a.53.53,0,0,1,.2-.039h.007a.6.6,0,0,1,.506.279l.683,1.117a.537.537,0,0,1-.136.709l-.471.369a1.094,1.094,0,0,0-.424.915v.48a1.1,1.1,0,0,0,.424.916l.465.368A.538.538,0,0,1,11,7.8L10.316,8.92a.6.6,0,0,1-.507.279H9.8a.535.535,0,0,1-.2-.039l-.589-.2a1.175,1.175,0,0,0-.408-.073h0a1.22,1.22,0,0,0-.636.179,3.3,3.3,0,0,1-.436.24,1.13,1.13,0,0,0-.625.81l-.1.558A.579.579,0,0,1,6.223,11.142ZM5.52,2.5a3.162,3.162,0,0,0-3.24,3.07,3.162,3.162,0,0,0,3.24,3.07,3.314,3.314,0,0,0,2.292-.9A2.971,2.971,0,0,0,8.76,5.571,3.162,3.162,0,0,0,5.52,2.5Zm0,4.187A1.15,1.15,0,0,1,4.342,5.571,1.15,1.15,0,0,1,5.52,4.454,1.15,1.15,0,0,1,6.7,5.571,1.15,1.15,0,0,1,5.52,6.687Z" transform="translate(0.163 0.124)" fill="#fafafa"/>
    </g>
  </g>
</svg>
