<svg xmlns="http://www.w3.org/2000/svg" width="22" height="22" viewBox="0 0 22 22">
  <path id="Icon_color" data-name="Icon color" d="M18.7,22H13.2a1.167,1.167,0,0,1-1.1-1.222V17.416a.291.291,0,0,0-.275-.3H10.175a.291.291,0,0,0-.275.3v3.362A1.167,1.167,0,0,1,8.8,22H3.3a1.167,1.167,0,0,1-1.1-1.222V12.222H1.1A1.167,1.167,0,0,1,0,11v-.648A2.685,2.685,0,0,1,.231,9.264L1.892,5.6a1.088,1.088,0,0,1,.982-.672H19.126a1.088,1.088,0,0,1,.982.672l1.661,3.666A2.685,2.685,0,0,1,22,10.352V11a1.167,1.167,0,0,1-1.1,1.222H19.8v8.556A1.167,1.167,0,0,1,18.7,22ZM8.8,14.666h4.4a1.167,1.167,0,0,1,1.1,1.222v3.667h3.3V12.222H4.4v7.334H7.7V15.888A1.167,1.167,0,0,1,8.8,14.666ZM19.25,2.444H2.75a.583.583,0,0,1-.55-.611V.612A.584.584,0,0,1,2.75,0h16.5a.584.584,0,0,1,.55.612V1.834A.583.583,0,0,1,19.25,2.444Z" fill="#007f80"/>
</svg>
