<svg xmlns="http://www.w3.org/2000/svg" width="22" height="22" viewBox="0 0 22 22">
  <path id="Icon_color" data-name="Icon color" d="M20.9,22H1.1a1.1,1.1,0,0,1-.979-1.595L2.2,16.236A5.471,5.471,0,0,1,7.116,13.2h7.768A5.471,5.471,0,0,1,19.8,16.236l2.079,4.169a1.091,1.091,0,0,1-.045,1.07A1.1,1.1,0,0,1,20.9,22ZM7.116,15.4a3.282,3.282,0,0,0-2.949,1.826L2.88,19.8H19.12l-1.288-2.574A3.281,3.281,0,0,0,14.884,15.4ZM11,11a5.5,5.5,0,1,1,5.5-5.5A5.507,5.507,0,0,1,11,11Zm0-8.8a3.3,3.3,0,1,0,3.3,3.3A3.3,3.3,0,0,0,11,2.2Z" fill="#007f80"/>
</svg>
