<svg width="18" height="18" viewBox="0 0 18 18" fill="none" xmlns="http://www.w3.org/2000/svg">
<g clip-path="url(#clip0_907_2509)">
<path d="M5.61797 0.101923L5.50195 0.203876V1.05466V1.90544L5.61797 2.00739L5.73047 2.10934H8.98594C12.5191 2.10934 12.382 2.11638 12.4734 1.91599C12.5332 1.78942 12.5332 0.319892 12.4734 0.193329C12.382 -0.00706124 12.5191 -3.00407e-05 8.98594 -3.00407e-05H5.73047L5.61797 0.101923Z" fill="#023ED2"/>
<path d="M3.34338 1.11094C2.8301 1.24805 2.43987 1.61016 2.23596 2.14102L2.16213 2.33789L2.15158 9.42188C2.14455 14.6355 2.15158 16.5621 2.17971 16.7168C2.29924 17.332 2.78791 17.8313 3.40315 17.9613C3.53674 17.9895 5.16096 18 9.01057 18C13.7707 18 14.4598 17.993 14.6426 17.9473C15.1699 17.8102 15.5567 17.4516 15.7641 16.9137L15.8379 16.7168L15.8485 9.63281C15.8555 4.41914 15.8485 2.49258 15.8203 2.33789C15.7571 2.01797 15.6235 1.76484 15.3844 1.52578C15.0223 1.16719 14.6918 1.05469 13.9922 1.05469H13.5703V1.51172C13.5703 1.88437 13.5563 2.01094 13.4965 2.18672C13.3629 2.5875 13.1238 2.84766 12.7266 3.0375L12.4981 3.14648L9.08791 3.15703C5.75158 3.16406 5.67424 3.16406 5.44572 3.09375C5.03088 2.96719 4.67229 2.62969 4.52815 2.22891C4.47541 2.0707 4.4508 1.90547 4.43674 1.53633L4.41916 1.05469L3.97619 1.0582C3.70549 1.0582 3.4594 1.0793 3.34338 1.11094ZM7.54104 5.32266C7.74143 5.40703 7.86799 5.66367 7.82229 5.89922C7.80119 6.01172 7.67112 6.15938 6.89768 6.93633C5.93088 7.90312 5.87815 7.94531 5.60041 7.89258C5.49143 7.87148 5.39299 7.79414 5.02033 7.425C4.65119 7.05234 4.57385 6.95391 4.55276 6.84492C4.47893 6.44766 4.85158 6.09961 5.21721 6.22266C5.28752 6.24375 5.43166 6.34219 5.54065 6.44063L5.73401 6.61992L6.37385 5.98711C6.72541 5.63906 7.04533 5.3332 7.08401 5.31211C7.18244 5.25938 7.40041 5.26289 7.54104 5.32266ZM13.2082 6.41953C13.5106 6.64805 13.5106 7.06289 13.2082 7.29141C13.1098 7.36523 13.0781 7.36523 11.0883 7.37578L9.06682 7.38281L8.92619 7.30547C8.78205 7.22461 8.64846 7.01016 8.64846 6.85547C8.64846 6.70781 8.78205 6.48633 8.91916 6.40547L9.05276 6.32812L11.0813 6.33867C13.0817 6.3457 13.1098 6.3457 13.2082 6.41953ZM7.56565 9.12656C7.69221 9.18984 7.79768 9.33398 7.8258 9.47461C7.87502 9.73828 7.84338 9.77695 6.92932 10.698C6.45471 11.1797 6.01877 11.598 5.95901 11.6262C5.79729 11.7141 5.57229 11.693 5.41408 11.584C5.34026 11.5312 5.12932 11.3344 4.94299 11.1445C4.5844 10.7754 4.50705 10.6242 4.54924 10.3922C4.58088 10.227 4.77776 10.0301 4.93947 9.99844C5.16447 9.95625 5.3051 10.009 5.52658 10.2234L5.73401 10.4203L6.39494 9.75938C6.90119 9.25313 7.08401 9.09141 7.17541 9.07031C7.30901 9.04219 7.42502 9.05625 7.56565 9.12656ZM13.2082 9.93516C13.5106 10.1637 13.5106 10.5785 13.2082 10.807C13.1098 10.8809 13.0781 10.8809 11.0883 10.8914L9.06682 10.8984L8.92619 10.8211C8.78205 10.7402 8.64846 10.5258 8.64846 10.3711C8.64846 10.2234 8.78205 10.002 8.91916 9.92109L9.05276 9.84375L11.0813 9.8543C13.0817 9.86133 13.1098 9.86133 13.2082 9.93516ZM7.56565 12.6422C7.69221 12.7055 7.79768 12.8496 7.8258 12.9902C7.87502 13.2539 7.84338 13.2926 6.92932 14.2137C6.45471 14.6953 6.01877 15.1137 5.95901 15.1418C5.79729 15.2297 5.57229 15.2086 5.41408 15.0996C5.34026 15.0469 5.12932 14.85 4.94299 14.6602C4.5844 14.291 4.50705 14.1398 4.54924 13.9078C4.58088 13.7426 4.77776 13.5457 4.93947 13.5141C5.16447 13.4719 5.3051 13.5246 5.52658 13.7391L5.73401 13.9359L6.39494 13.275C6.90119 12.7688 7.08401 12.607 7.17541 12.5859C7.30901 12.5578 7.42502 12.5719 7.56565 12.6422ZM13.1836 13.4332C13.3313 13.5176 13.4649 13.725 13.4649 13.8727C13.4649 14.0449 13.3313 14.2699 13.1801 14.3438C13.05 14.4105 12.9656 14.4141 11.0531 14.4141C9.07033 14.4141 9.0633 14.4141 8.92619 14.3367C8.78205 14.2559 8.64846 14.0414 8.64846 13.8867C8.64846 13.7391 8.78205 13.5176 8.91916 13.4367C9.05276 13.3629 9.0633 13.3594 11.0531 13.3594C13.0254 13.3594 13.0535 13.3594 13.1836 13.4332Z" fill="#023ED2"/>
</g>
<defs>
<clipPath id="clip0_907_2509">
<rect width="18" height="18" fill="white"/>
</clipPath>
</defs>
</svg>
