<svg xmlns="http://www.w3.org/2000/svg" width="29.77" height="28.018" viewBox="0 0 29.77 28.018">
  <g id="paint-brush" transform="translate(0 0)">
    <path id="Path_136" data-name="Path 136" d="M236.673-496.82c-1.775.559-7.077,4.772-13.974,11.11l-1.7,1.566.46.506c.256.274,1.234,1.263,2.171,2.2l1.705,1.694.815-.9a135.315,135.315,0,0,0,10.517-12.792c.914-1.362,1.333-2.311,1.246-2.788a.831.831,0,0,0-.547-.617A.985.985,0,0,0,236.673-496.82Z" transform="translate(-208.154 496.896)" fill="#007f80"/>
    <path id="Path_137" data-name="Path 137" d="M164.635-259.2c-.623.605-1.135,1.117-1.135,1.135s1.007,1.053,2.235,2.3l2.229,2.264.751-.786c.413-.431.908-.954,1.094-1.164l.343-.378-2.194-2.235-2.194-2.235Z" transform="translate(-154.001 274.07)" fill="#007f80"/>
    <path id="Path_138" data-name="Path 138" d="M7.95-203.6a5.175,5.175,0,0,0-3.987,2.875,9.71,9.71,0,0,0-.792,2.561c-.541,2.567-.914,3.149-2.148,3.352a1.6,1.6,0,0,0-.553.18.554.554,0,0,0,.146.92,14.691,14.691,0,0,0,2.479.722c2.852.553,5.442.14,7.153-1.152a8.016,8.016,0,0,0,2.858-4.586l.1-.454-2.241-2.252c-1.286-1.3-2.281-2.264-2.351-2.27A4.417,4.417,0,0,0,7.95-203.6Z" transform="translate(-0.284 220.772)" fill="#007f80"/>
  </g>
</svg>
